<svg width="22" height="22" viewBox="0 0 22 22" fill="none" xmlns="http://www.w3.org/2000/svg">
<path d="M11 0.4375C8.91094 0.4375 6.86879 1.05698 5.13179 2.2176C3.3948 3.37822 2.04098 5.02786 1.24153 6.95791C0.442077 8.88795 0.232904 11.0117 0.64046 13.0606C1.04802 15.1096 2.054 16.9916 3.53119 18.4688C5.00838 19.946 6.89044 20.952 8.93936 21.3595C10.9883 21.7671 13.1121 21.5579 15.0421 20.7585C16.9721 19.959 18.6218 18.6052 19.7824 16.8682C20.943 15.1312 21.5625 13.0891 21.5625 11C21.5595 8.19956 20.4458 5.51466 18.4656 3.53445C16.4853 1.55424 13.8004 0.440457 11 0.4375ZM19.9375 11C19.9384 12.1466 19.7177 13.2826 19.2875 14.3455L14.7477 11.5535C14.5546 11.4344 14.3387 11.3572 14.1139 11.327L11.7963 11.0142C11.4769 10.9726 11.1523 11.0261 10.8633 11.1681C10.5742 11.3101 10.3335 11.5343 10.1713 11.8125H9.28563L8.89969 11.0142C8.793 10.7919 8.63685 10.597 8.44321 10.4444C8.24956 10.2918 8.02356 10.1855 7.7825 10.1337L6.97 9.95797L7.76422 8.5625H9.46133C9.73595 8.56196 10.006 8.49209 10.2464 8.35937L11.4906 7.67281C11.5999 7.61188 11.702 7.53899 11.7952 7.45547L14.5283 4.98344C14.8023 4.73787 14.9844 4.40624 15.0446 4.04324C15.1048 3.68025 15.0395 3.30758 14.8594 2.98672L14.8228 2.9207C16.3521 3.64586 17.6445 4.78985 18.5498 6.21991C19.4551 7.64998 19.9363 9.30746 19.9375 11ZM12.5549 2.19859L13.4375 3.77891L10.7045 6.25094L9.46133 6.9375H7.76422C7.47857 6.93708 7.19785 7.01196 6.95036 7.15461C6.70288 7.29725 6.49736 7.50262 6.35454 7.75L5.46789 9.2968L4.43704 6.55055L5.54813 3.92312C6.5316 3.16323 7.66295 2.61713 8.86971 2.31981C10.0765 2.0225 11.332 1.98052 12.5559 2.19656L12.5549 2.19859ZM2.0625 11C2.06115 9.67158 2.35752 8.35975 2.92985 7.16094L4.08157 10.2352C4.17755 10.4898 4.33589 10.7161 4.54209 10.8936C4.74828 11.071 4.99572 11.1939 5.26172 11.2509L7.43821 11.7191L7.82516 12.5234C7.95945 12.797 8.16757 13.0276 8.42601 13.1891C8.68444 13.3506 8.9829 13.4367 9.28766 13.4375H9.43797L8.70368 15.0859C8.5743 15.3761 8.53286 15.6979 8.58448 16.0115C8.63611 16.325 8.77854 16.6166 8.99414 16.85L9.00836 16.8642L11 18.9158L10.803 19.9314C8.46889 19.8771 6.24846 18.9127 4.6155 17.2441C2.98254 15.5755 2.06638 13.3347 2.0625 11ZM12.4808 19.8136L12.5956 19.2235C12.6427 18.9728 12.6305 18.7146 12.56 18.4694C12.4895 18.2243 12.3625 17.9991 12.1893 17.8118C12.1843 17.8073 12.1796 17.8026 12.1751 17.7976L10.1875 15.747L11.5789 12.625L13.8966 12.9378L18.54 15.7937C17.8673 16.8502 16.9804 17.7539 15.9367 18.4463C14.893 19.1387 13.7157 19.6045 12.4808 19.8136Z" fill="#C3C5C8"/>
</svg>
